<?xml version="1.0" encoding="utf-8"?>
<!-- Generator: Adobe Illustrator 23.0.1, SVG Export Plug-In . SVG Version: 6.00 Build 0)  -->
<svg version="1.1" id="Layer_1" xmlns="http://www.w3.org/2000/svg" xmlns:xlink="http://www.w3.org/1999/xlink" x="0px" y="0px"
	 viewBox="0 0 16 16" style="enable-background:new 0 0 16 16;" xml:space="preserve">
<style type="text/css">
	.st0{fill:#00A99D;}
	.st1{fill:#FF0066;}
	.st2{fill:#FFFFFF;}
	.st3{font-family:'Roboto-Medium';}
	.st4{font-size:12px;}
</style>
<path class="st0" d="M13.3,3.9c0.9,1.8,0.2,4.2-1,6.3c-1.2,2.1-2.9,3.9-4.9,4c-2,0.1-4.1-1.4-5-3.4C1.5,9,1.8,6.7,2.9,4.7
	c1.1-2,2.9-3.6,5-3.8C10,0.8,12.4,2.1,13.3,3.9z"/>
<path class="st1" d="M14.4,6.1c1.1,1.6,1.4,3.9,0.5,5.7c-0.9,1.8-3.1,3.2-4.9,3c-1.8-0.2-3.3-2-4.2-3.9C4.8,9.1,4.4,7.2,5.1,5.8
	c0.7-1.4,2.6-2.1,4.5-2.1C11.5,3.8,13.3,4.6,14.4,6.1z"/>
<text transform="matrix(1 0 0 1 3.5574 11.8759)" class="st2 st3 st4">A</text>
</svg>
